<?xml version="1.0" standalone="no"?>
<!DOCTYPE svg PUBLIC "-//W3C//DTD SVG 20010904//EN"
 "http://www.w3.org/TR/2001/REC-SVG-20010904/DTD/svg10.dtd">
<svg version="1.0" xmlns="http://www.w3.org/2000/svg"
 width="1890.000000pt" height="1890.000000pt" viewBox="0 0 1890.000000 1890.000000"
 preserveAspectRatio="xMidYMid meet">
<metadata>
Created by potrace 1.14, written by Peter Selinger 2001-2017
</metadata>
<g transform="translate(0.000000,1890.000000) scale(0.100000,-0.100000)"
fill="#000000" stroke="none">
<path d="M8310 16458 c-19 -4 -44 -10 -55 -12 -26 -6 -386 -102 -450 -121 -27
-8 -95 -26 -150 -41 -55 -14 -147 -39 -205 -54 -58 -16 -168 -45 -245 -65
-301 -78 -332 -90 -359 -136 -9 -16 -17 -47 -18 -71 -1 -73 14 -489 27 -704
l7 -121 -124 -63 c-67 -35 -177 -92 -243 -127 -66 -34 -130 -67 -143 -73 -39
-17 -364 -221 -449 -282 -84 -60 -96 -65 -116 -47 -7 6 -75 51 -152 100 -77
49 -180 115 -229 147 -49 31 -104 66 -122 77 -18 11 -68 42 -110 69 -95 61
-137 68 -197 32 -23 -13 -272 -256 -554 -538 -447 -449 -512 -518 -518 -550
-13 -67 -16 -61 210 -412 66 -102 125 -194 130 -204 6 -10 34 -54 63 -99 28
-45 52 -85 52 -88 0 -4 -12 -22 -26 -40 -14 -19 -52 -76 -85 -127 -32 -51 -62
-97 -67 -103 -79 -98 -79 -189 1 -243 34 -23 294 -174 497 -289 19 -11 58 -34
86 -50 27 -17 70 -41 95 -55 24 -14 159 -92 299 -173 185 -107 266 -149 296
-152 67 -7 99 18 194 159 110 163 237 329 310 408 8 9 38 43 65 75 119 140
384 393 540 516 44 35 82 66 85 70 3 3 46 35 95 69 50 35 92 66 95 69 9 10
121 82 239 154 103 62 521 279 546 283 6 1 91 34 190 74 99 40 212 81 250 92
39 10 93 25 120 33 28 8 76 20 107 28 31 8 61 18 66 21 9 5 114 27 202 42 14
3 59 11 100 19 41 8 95 17 119 20 24 3 47 8 51 10 9 5 86 12 250 21 58 3 123
9 145 13 79 14 566 -2 725 -24 67 -9 98 -13 170 -20 36 -3 79 -10 95 -15 17
-5 45 -12 63 -15 82 -13 99 -16 132 -25 19 -5 51 -11 70 -14 73 -12 474 -130
549 -162 20 -9 107 -45 193 -80 87 -35 197 -85 245 -110 250 -130 303 -159
363 -198 36 -24 115 -75 175 -114 61 -39 119 -78 130 -87 11 -9 33 -26 49 -38
57 -44 188 -149 275 -222 66 -54 385 -376 431 -433 25 -31 57 -70 72 -87 14
-16 36 -41 49 -55 46 -52 236 -318 286 -400 21 -33 57 -60 91 -66 14 -3 28 -7
30 -9 11 -11 99 37 617 338 66 38 134 77 150 87 69 40 211 122 225 130 8 5 76
44 150 87 168 97 173 101 194 140 20 40 20 69 -2 110 -19 36 -172 265 -182
273 -4 3 -15 19 -25 37 l-18 31 35 54 c19 29 73 113 119 185 46 73 116 183
156 245 149 234 147 230 149 280 2 42 -2 54 -36 95 -68 85 -1014 1020 -1049
1038 -46 23 -104 13 -167 -28 -27 -18 -92 -59 -144 -92 -52 -33 -97 -62 -100
-66 -3 -3 -12 -9 -20 -12 -8 -4 -42 -25 -75 -46 -68 -45 -159 -103 -254 -162
l-64 -40 -71 48 c-39 26 -75 50 -81 53 -5 3 -66 42 -133 88 -68 45 -128 82
-132 82 -5 0 -10 4 -12 8 -1 5 -61 39 -133 77 -71 38 -159 84 -195 102 -153
81 -237 123 -264 133 l-28 10 6 108 c4 59 9 152 11 207 4 109 17 445 18 485 2
51 -14 97 -42 124 -16 15 -35 29 -42 30 -8 1 -41 10 -74 20 -33 10 -85 24
-115 32 -30 8 -69 20 -87 25 -18 6 -40 12 -50 13 -10 2 -38 10 -63 17 -25 7
-54 14 -64 16 -10 2 -49 12 -85 23 -36 11 -78 22 -93 24 -14 2 -36 9 -47 16
-12 6 -21 9 -21 6 0 -2 -24 2 -52 10 -101 28 -273 75 -288 78 -46 12 -216 57
-285 76 -92 26 -135 27 -173 4 -38 -22 -53 -46 -182 -299 -104 -202 -133 -258
-223 -428 l-31 -59 -50 6 c-28 3 -85 9 -126 13 -114 10 -700 9 -830 -1 -63 -5
-134 -10 -158 -10 l-43 -1 -80 155 c-45 85 -122 234 -171 330 -50 96 -103 196
-117 223 -38 71 -94 101 -161 85z"/>
<path d="M7683 13272 c-39 -6 -71 -51 -117 -170 -25 -64 -51 -130 -57 -147 -7
-16 -13 -32 -14 -35 -1 -3 -7 -25 -14 -49 -7 -24 -16 -51 -21 -60 -8 -16 -52
-127 -72 -186 -6 -16 -15 -39 -20 -50 -4 -11 -21 -56 -37 -100 -59 -166 -103
-281 -122 -321 -10 -23 -19 -46 -19 -51 0 -6 -9 -32 -19 -59 -11 -27 -41 -107
-66 -179 -26 -71 -56 -149 -66 -172 -11 -23 -19 -49 -19 -57 0 -8 -4 -17 -9
-21 -5 -3 -13 -20 -17 -38 -3 -17 -13 -45 -20 -62 -7 -16 -29 -75 -49 -130
-20 -55 -50 -134 -66 -175 -41 -106 -165 -439 -200 -540 -17 -47 -34 -94 -39
-105 -5 -11 -30 -76 -55 -145 -26 -69 -50 -134 -55 -145 -53 -115 -62 -204
-26 -244 14 -16 65 -36 115 -46 9 -2 50 -14 91 -28 41 -14 136 -44 210 -67 74
-23 146 -45 160 -50 14 -5 39 -12 55 -16 37 -9 34 -8 68 -22 16 -7 32 -12 36
-12 4 0 72 -21 152 -46 79 -25 158 -50 174 -55 17 -5 111 -34 210 -65 99 -31
212 -65 250 -76 39 -11 79 -24 90 -28 30 -13 342 -110 409 -128 l59 -15 -69
-24 c-38 -13 -76 -25 -84 -27 -8 -2 -62 -19 -120 -37 -58 -18 -107 -34 -110
-34 -20 -5 -176 -52 -275 -85 -179 -58 -312 -99 -338 -104 -12 -2 -56 -15 -97
-29 -41 -13 -113 -37 -160 -52 l-85 -27 -22 29 c-13 15 -37 44 -53 63 -42 48
-68 80 -93 114 -12 15 -33 41 -47 56 -14 15 -41 46 -59 70 -19 23 -41 48 -48
56 -7 7 -13 17 -13 21 0 5 -10 19 -22 30 -13 12 -36 38 -53 59 -16 20 -40 48
-52 61 -12 12 -26 29 -30 37 -4 8 -27 36 -50 63 -71 82 -147 178 -159 198 -6
11 -29 26 -51 34 -35 13 -46 13 -79 0 -32 -11 -44 -24 -66 -69 -15 -30 -37
-86 -49 -125 -13 -38 -27 -75 -31 -81 -14 -19 -36 -103 -33 -122 2 -9 4 -22 4
-29 1 -6 30 -46 66 -90 35 -43 102 -125 149 -183 47 -58 106 -128 131 -156 26
-28 61 -71 78 -95 18 -24 43 -55 57 -69 14 -14 36 -40 50 -59 14 -18 32 -41
41 -50 8 -10 22 -27 31 -39 8 -12 30 -39 49 -60 19 -20 47 -55 64 -77 67 -89
134 -139 176 -131 78 15 96 20 108 30 8 6 17 10 20 9 3 -1 24 3 46 9 22 6 45
12 50 13 23 5 251 78 260 83 6 4 18 8 27 9 16 2 96 27 270 83 l57 19 -17 -27
c-16 -24 -17 -75 -16 -647 0 -548 2 -623 16 -648 14 -25 258 -327 320 -397 38
-42 70 -60 110 -60 44 0 85 31 96 75 5 17 8 418 7 892 0 852 0 862 -21 889
-11 15 -35 32 -52 38 l-33 11 48 14 c26 8 80 25 118 37 39 13 72 24 75 24 3 0
5 -681 5 -1514 l0 -1514 31 -44 c32 -45 276 -345 316 -388 25 -27 68 -79 101
-124 99 -130 179 -162 243 -95 l29 30 0 1897 c0 2054 3 1940 -52 1967 -19 10
-14 13 50 35 40 13 77 27 83 32 7 5 16 2 24 -7 7 -8 18 -15 24 -15 6 0 19 -7
29 -14 16 -13 16 -15 -2 -57 -18 -42 -18 -100 -17 -1589 2 -1241 5 -1550 15
-1571 25 -52 102 -65 158 -27 18 13 33 26 33 30 0 4 70 91 156 195 86 103 168
203 183 220 14 18 37 46 51 62 86 99 106 127 116 160 7 24 10 264 9 714 0 372
1 677 2 677 1 0 8 -6 15 -13 7 -7 45 -39 84 -70 70 -56 72 -58 64 -91 -10 -44
-13 -463 -4 -512 12 -67 105 -97 168 -53 32 22 146 155 192 224 15 22 40 68
55 103 23 50 33 62 46 58 24 -7 140 -34 178 -40 55 -10 140 -9 181 3 71 19
178 130 190 197 3 16 6 30 7 31 2 1 20 -2 42 -7 22 -5 93 -9 157 -8 99 0 125
4 165 23 80 37 130 121 119 201 l-6 45 25 -29 c51 -61 227 -119 378 -126 182
-7 387 90 562 268 182 184 303 373 330 517 3 13 7 36 10 51 13 59 7 303 -9
378 -33 154 -79 299 -127 405 -12 28 -22 53 -21 57 1 4 -19 28 -44 54 -42 43
-45 49 -33 70 18 34 15 82 -8 134 -18 41 -57 83 -177 194 -30 28 -36 39 -28
49 7 7 19 42 28 77 32 124 -1 242 -85 306 -25 20 -46 39 -45 42 0 4 12 33 27
64 41 88 60 174 53 243 -14 153 -65 258 -174 361 -43 40 -128 83 -197 99 -65
16 -257 12 -300 -4 -25 -10 -31 -10 -42 5 -7 10 -13 26 -13 37 0 10 -16 34
-35 53 l-35 34 25 40 c38 60 64 133 68 192 11 140 -83 322 -218 425 -62 47
-134 67 -225 60 l-77 -5 2 37 c3 53 -20 134 -60 210 -75 143 -196 225 -330
225 -88 1 -182 -30 -249 -82 -66 -50 -153 -165 -215 -287 -28 -55 -61 -112
-73 -128 -20 -24 -27 -26 -53 -18 -33 9 -534 6 -575 -4 -14 -3 -74 -7 -133 -9
-94 -3 -113 -7 -139 -26 -26 -19 -35 -21 -70 -12 -22 6 -102 10 -177 9 -108
-2 -137 1 -134 11 13 33 -38 97 -85 107 -9 2 -37 11 -62 20 -25 9 -56 19 -69
21 -13 3 -44 15 -70 28 -25 13 -109 44 -186 70 -77 27 -149 52 -160 57 -11 4
-38 13 -61 18 -44 12 -78 42 -89 81 -4 14 -16 34 -26 45 -10 11 -37 43 -59 70
-21 28 -46 58 -55 68 -8 9 -15 19 -15 22 0 3 -72 92 -160 198 -88 105 -170
204 -183 220 -12 15 -30 35 -39 44 -10 10 -18 22 -18 28 0 6 -12 22 -27 37
-16 14 -41 42 -58 63 -60 74 -82 86 -142 77z m3433 -1465 c-15 -19 -26 -37
-26 -40 0 -3 -19 -34 -41 -68 -23 -34 -63 -98 -89 -143 -26 -45 -77 -130 -113
-191 -37 -60 -70 -116 -75 -124 -5 -10 -13 -11 -24 -5 -14 8 -10 19 32 79 87
125 156 229 176 265 47 84 166 260 177 260 4 0 -3 -15 -17 -33z m1106 -2477
c35 -33 75 -62 90 -65 25 -6 26 -9 21 -54 -4 -40 1 -59 33 -126 34 -71 38 -88
41 -170 3 -140 -27 -188 -165 -260 l-83 -43 -11 23 c-9 21 -87 85 -102 85 -9
0 -96 63 -96 70 0 3 15 13 33 23 71 39 137 123 152 197 7 33 13 151 14 308 1
39 3 72 6 72 2 0 33 -27 67 -60z m-1372 -790 c0 -13 -11 -13 -30 0 -12 8 -11
10 8 10 12 0 22 -4 22 -10z"/>
<path d="M4004 12444 c-21 -7 -45 -21 -53 -31 -7 -10 -54 -101 -103 -202 l-90
-183 -111 6 c-142 8 -258 14 -477 22 -96 3 -191 7 -210 8 -68 4 -131 -31 -152
-84 -6 -14 -30 -99 -54 -190 -24 -91 -53 -196 -63 -235 -11 -38 -34 -124 -51
-190 -17 -66 -37 -142 -45 -170 -8 -27 -30 -111 -50 -185 -20 -74 -42 -157
-50 -185 -9 -27 -17 -59 -19 -70 -3 -11 -16 -61 -29 -111 -16 -59 -23 -103
-18 -123 9 -47 56 -89 150 -136 47 -23 151 -76 231 -118 80 -42 206 -107 280
-146 154 -80 138 -50 126 -236 -8 -126 -17 -307 -17 -360 -1 -93 11 -476 17
-550 3 -44 7 -93 7 -108 2 -26 -7 -33 -138 -101 -77 -40 -203 -105 -280 -145
-77 -41 -179 -93 -226 -117 -148 -75 -170 -115 -137 -236 11 -40 25 -98 33
-128 7 -30 25 -98 40 -150 15 -52 28 -102 30 -110 3 -15 50 -189 81 -305 9
-33 22 -80 30 -105 7 -25 16 -56 18 -70 3 -14 15 -59 26 -100 11 -41 36 -136
56 -210 19 -74 40 -148 46 -165 23 -62 81 -102 143 -98 11 1 119 5 240 9 121
4 238 8 260 9 22 1 104 5 183 10 100 5 142 4 142 -4 0 -11 69 -165 94 -211 8
-14 25 -45 38 -70 58 -105 91 -166 103 -185 6 -11 27 -47 45 -80 70 -129 112
-196 213 -340 l104 -150 -17 -25 c-37 -52 -150 -230 -150 -236 0 -2 -5 -10
-11 -17 -5 -7 -27 -39 -48 -72 -63 -100 -185 -290 -199 -311 -33 -50 -44 -88
-37 -133 7 -45 21 -60 528 -568 339 -340 534 -528 558 -539 56 -25 99 -12 226
69 62 40 138 88 168 107 30 19 138 88 239 152 102 65 187 118 191 118 3 0 58
-34 121 -75 63 -41 117 -75 120 -75 3 0 10 -5 17 -11 24 -21 227 -149 237
-149 6 0 10 -4 10 -10 0 -5 4 -10 9 -10 4 0 71 -34 147 -76 76 -42 194 -103
262 -135 l124 -59 -7 -127 c-4 -71 -8 -157 -10 -193 -6 -95 -18 -469 -17 -509
2 -76 36 -110 140 -142 28 -9 52 -15 52 -13 0 2 19 -3 41 -12 23 -8 51 -16 63
-18 12 -2 66 -16 121 -31 55 -15 123 -33 150 -40 28 -7 75 -20 105 -28 30 -9
100 -27 155 -42 55 -15 150 -40 210 -57 61 -16 153 -41 205 -55 52 -14 133
-35 180 -47 140 -38 174 -21 248 122 60 117 175 337 271 522 l70 135 43 -1
c24 -1 79 -4 123 -7 169 -13 271 -10 308 8 72 34 70 2 69 809 0 655 -1 725
-17 763 -27 67 -59 77 -285 88 -63 3 -126 7 -140 10 -32 7 -71 13 -135 20 -62
7 -207 32 -300 52 -38 8 -77 16 -85 18 -67 14 -258 64 -285 75 -11 5 -63 22
-115 38 -130 41 -340 123 -467 182 -58 28 -107 50 -110 50 -12 0 -298 159
-371 206 -45 30 -85 54 -88 54 -3 0 -10 5 -17 11 -7 5 -57 40 -112 76 -132 87
-418 315 -530 423 -189 183 -232 227 -285 290 -30 35 -59 70 -65 76 -5 6 -29
33 -52 60 -23 27 -50 59 -60 71 -10 12 -25 30 -33 40 -25 29 -137 188 -149
211 -6 11 -17 26 -24 34 -7 7 -23 30 -36 51 -13 21 -28 43 -34 50 -7 7 -18 23
-25 36 -35 61 -57 100 -85 151 -17 30 -52 92 -78 137 -51 89 -229 484 -229
508 0 8 -4 15 -10 15 -5 0 -10 7 -10 15 0 8 -25 88 -55 178 -45 135 -79 255
-100 357 -3 14 -21 88 -29 120 -23 86 -31 132 -51 285 -8 66 -17 131 -20 145
-3 14 -8 63 -10 110 -3 47 -8 139 -12 205 -9 155 -9 290 1 440 4 66 9 152 11
191 1 39 10 117 19 175 10 57 24 145 32 194 22 142 23 146 44 225 20 71 24 89
34 135 3 11 12 49 21 85 10 36 18 70 20 75 1 6 5 17 8 25 25 65 117 325 117
331 0 8 80 185 165 364 52 109 59 154 30 202 -20 34 -13 30 -210 143 -226 131
-605 350 -645 372 -32 18 -134 77 -170 98 -272 160 -285 165 -346 144z"/>
<path d="M14750 12434 c-25 -13 -52 -29 -60 -34 -12 -8 -192 -112 -345 -200
-16 -9 -75 -43 -130 -75 -55 -32 -226 -130 -380 -218 -154 -88 -292 -171 -307
-185 -28 -26 -44 -70 -39 -111 2 -13 29 -76 60 -140 31 -64 79 -168 105 -231
27 -63 51 -119 54 -125 4 -5 7 -14 9 -20 1 -5 20 -62 43 -125 23 -63 46 -128
50 -145 5 -16 16 -52 25 -80 8 -27 17 -59 20 -70 2 -11 16 -65 29 -120 32
-127 45 -182 51 -220 3 -16 10 -52 15 -80 8 -42 26 -162 45 -300 6 -43 14
-159 21 -320 8 -170 8 -171 0 -320 -4 -66 -9 -165 -11 -220 -4 -104 -13 -204
-20 -216 -3 -3 -7 -31 -10 -60 -3 -30 -8 -67 -11 -84 -3 -16 -11 -70 -19 -120
-36 -242 -202 -785 -304 -999 -21 -45 -63 -133 -93 -196 -30 -63 -89 -173
-131 -243 -43 -71 -77 -131 -77 -134 0 -22 -330 -476 -402 -554 -18 -19 -60
-66 -93 -104 -74 -86 -197 -210 -336 -338 -98 -91 -432 -353 -514 -404 -19
-12 -99 -62 -178 -111 -132 -82 -547 -300 -547 -287 0 3 -12 -3 -27 -12 -15
-10 -28 -17 -30 -15 -2 1 -19 -5 -39 -13 -20 -8 -43 -15 -50 -15 -8 0 -14 -4
-14 -8 0 -5 -6 -9 -12 -9 -7 0 -56 -17 -108 -38 -149 -59 -511 -159 -655 -181
-16 -2 -61 -11 -100 -19 -38 -7 -90 -17 -115 -21 -25 -3 -52 -8 -61 -9 -39 -8
-122 -15 -214 -20 -236 -12 -271 -23 -308 -97 -17 -34 -18 -84 -18 -751 0
-792 -2 -773 64 -812 27 -16 49 -19 137 -17 58 1 121 4 140 7 19 3 69 8 111
11 l76 7 28 -51 c15 -28 27 -54 27 -59 0 -4 8 -19 17 -33 10 -14 52 -92 94
-175 41 -82 94 -184 116 -225 22 -41 49 -95 61 -120 33 -70 69 -117 101 -130
30 -13 102 -16 119 -5 5 3 44 15 87 26 43 11 101 26 128 34 56 16 310 85 334
90 27 7 231 61 336 90 55 15 125 34 155 41 30 8 62 16 70 18 93 24 240 66 260
74 49 19 81 69 82 127 1 54 -17 523 -27 696 l-7 126 244 122 c133 67 279 145
323 173 152 98 180 116 275 174 52 32 97 61 98 66 2 4 8 8 14 8 6 0 27 14 48
30 21 17 41 30 44 30 4 0 96 -57 206 -127 110 -71 218 -139 240 -153 22 -14
86 -54 142 -90 139 -88 140 -88 192 -85 33 2 56 11 83 33 21 17 264 257 540
534 485 487 501 504 508 548 8 57 -3 85 -82 202 -18 26 -33 50 -33 53 0 9 -94
150 -102 153 -5 2 -8 8 -8 12 0 5 -40 71 -88 147 -49 76 -97 153 -108 171 -10
17 -22 32 -26 32 -21 0 -2 44 51 116 32 44 125 190 205 325 80 134 151 251
156 259 6 8 14 24 19 35 5 11 30 65 57 120 26 55 48 102 48 105 1 3 12 27 26
53 l25 47 205 -5 c113 -3 237 -7 275 -10 39 -2 115 -7 170 -11 168 -11 189
-11 222 -2 45 12 88 59 102 110 6 24 50 187 97 363 47 176 87 325 88 330 2 6
8 28 14 50 6 22 13 51 16 65 3 14 12 48 20 75 18 65 66 242 76 280 17 66 50
183 58 206 4 13 8 29 7 34 -5 47 -19 85 -38 102 -20 19 -246 139 -532 284 -55
28 -131 68 -170 88 l-70 38 1 59 c1 32 5 113 10 179 9 146 10 683 1 780 -4 39
-9 95 -13 125 l-6 56 49 26 c26 14 100 53 163 86 63 33 167 86 230 119 63 33
156 81 206 107 186 94 184 84 83 464 -43 163 -85 320 -93 347 -8 28 -21 77
-30 110 -8 33 -25 94 -36 135 -31 115 -46 171 -94 350 -24 91 -48 176 -54 190
-22 55 -87 89 -162 84 -32 -2 -98 -5 -465 -19 -60 -2 -158 -7 -216 -10 l-105
-6 -92 185 c-108 216 -132 246 -200 246 -30 -1 -63 -10 -92 -26z"/>
</g>
</svg>
